<svg xmlns="http://www.w3.org/2000/svg" width="13.375" height="13.147" viewBox="0 0 13.375 13.147">
  <path id="red-tiny-star" d="M219.544,27.511l-.33-1.015h0a.7.7,0,0,0-.828-.462l-3.7.362-.564-3.694a.7.7,0,0,0-.7-.668h-1.067a.7.7,0,0,0-.7.668l-.564,3.694-3.7-.362a.7.7,0,0,0-.828.462l-.33,1.018a.7.7,0,0,0,.435.878l3.242,1.495-2.064,3.585a.7.7,0,0,0-.114.38v.024a.7.7,0,0,0,.046.234.687.687,0,0,0,.241.313l.52.379.336.245a.7.7,0,0,0,.961-.132l3.051-2.732,3.05,2.732a.7.7,0,0,0,.96.132l.337-.245.521-.379a.692.692,0,0,0,.241-.313.7.7,0,0,0,.046-.234c0-.009,0-.016,0-.024a.7.7,0,0,0-.114-.38l-2.065-3.587,3.242-1.495a.7.7,0,0,0,.445-.474.7.7,0,0,0-.009-.4" transform="translate(-206.202 -22.034)" fill="#d60812"/>
</svg>
