<svg xmlns="http://www.w3.org/2000/svg" width="36" height="133" viewBox="0 0 36 133">
  <g id="applab-left" transform="translate(-5 -316.25)">
    <rect id="Rectangle_10074" data-name="Rectangle 10074" width="36" height="133" rx="10" transform="translate(5 316.25)" fill="#f3f3f3"/>
    <g id="Vector_Smart_Object" data-name="Vector Smart Object" transform="translate(11.3 434.502) rotate(-90)" style="isolation: isolate">
      <path id="Path_115" data-name="Path 115" d="M8,0a7.986,7.986,0,1,0,5.351,13.9v2.07h2.617V7.986A7.986,7.986,0,0,0,8,0m5.351,7.986A5.353,5.353,0,1,1,8,2.623a5.353,5.353,0,0,1,5.351,5.363" transform="translate(18.525 3.871)" fill="#4d4d4d"/>
      <path id="Path_116" data-name="Path 116" d="M7.968,0A7.986,7.986,0,0,0,0,7.986V19.829H2.616V13.9A7.977,7.977,0,1,0,7.97,0m5.351,7.986A5.353,5.353,0,1,1,7.97,2.623a5.353,5.353,0,0,1,5.351,5.363" transform="translate(35.822 3.871)" fill="#4d4d4d"/>
      <path id="Path_117" data-name="Path 117" d="M7.969,0A7.986,7.986,0,0,0,0,7.986V19.829H2.617V13.9A7.977,7.977,0,1,0,7.971,0m5.351,7.986A5.353,5.353,0,1,1,7.971,2.623a5.353,5.353,0,0,1,5.351,5.363" transform="translate(53.089 3.871)" fill="#4d4d4d"/>
      <path id="Path_118" data-name="Path 118" d="M8,0a7.986,7.986,0,1,0,5.351,13.9v2.07h2.617V7.987A7.986,7.986,0,0,0,8,0M8,13.35a5.363,5.363,0,1,1,5.351-5.363A5.363,5.363,0,0,1,8,13.35" transform="translate(74.27 3.87)" fill="#2a7de1"/>
      <rect id="Rectangle_8" data-name="Rectangle 8" width="2.617" height="19.842" transform="translate(70.355 0)" fill="#2a7de1"/>
      <path id="Path_119" data-name="Path 119" d="M7.97,3.857a7.979,7.979,0,0,0-5.353,2.07V0H0V11.842A7.968,7.968,0,1,0,7.968,3.857m5.351,7.986A5.353,5.353,0,1,1,7.97,6.479a5.353,5.353,0,0,1,5.35,5.363" transform="translate(91.567 0.014)" fill="#2a7de1"/>
      <path id="Path_120" data-name="Path 120" d="M7.608,3.789,3.935.156A.536.536,0,0,0,3.556,0H.265A.261.261,0,0,0,.081.447L3.829,4.161.079,7.885a.261.261,0,0,0,.183.448l.675,0H3.555a.543.543,0,0,0,.38-.157L7.608,4.534a.525.525,0,0,0,0-.745" transform="translate(0 5.882)" fill="#e1251b"/>
      <path id="Path_121" data-name="Path 121" d="M8.921,4.985,4.974,8.941a.6.6,0,0,1-.851,0L.176,4.985a.605.605,0,0,1,0-.854L4.123.177a.6.6,0,0,1,.851,0L8.921,4.132a.6.6,0,0,1,0,.854" transform="translate(6.808 9.582)" fill="#00ac69"/>
      <path id="Path_122" data-name="Path 122" d="M3.9,7.829A3.915,3.915,0,1,0,0,3.9,3.915,3.915,0,0,0,3.9,7.829" transform="translate(0.001 15.869)" fill="#2a7de1"/>
      <path id="Path_123" data-name="Path 123" d="M8.8,3.614l-.218-.67h0a.461.461,0,0,0-.546-.3L5.6,2.878,5.225.44A.461.461,0,0,0,4.765,0h-.7A.462.462,0,0,0,3.6.44L3.228,2.878.786,2.639a.461.461,0,0,0-.546.3l-.218.672a.463.463,0,0,0,.287.579l2.139.986L1.087,7.546a.464.464,0,0,0-.075.251v.016a.461.461,0,0,0,.03.154.453.453,0,0,0,.159.206l.343.25.222.161A.46.46,0,0,0,2.4,8.5L4.413,6.7,6.425,8.5a.459.459,0,0,0,.633.087l.222-.161.343-.25a.456.456,0,0,0,.159-.206.461.461,0,0,0,.03-.154V7.8a.459.459,0,0,0-.075-.251L6.375,5.179l2.139-.986a.464.464,0,0,0,.293-.313A.459.459,0,0,0,8.8,3.614" transform="translate(6.944 0.002)" fill="#ffb71b"/>
    </g>
  </g>
</svg>
