<svg xmlns="http://www.w3.org/2000/svg" width="63.371" height="55.231" viewBox="0 0 63.371 55.231">
  <g id="Group_13644" data-name="Group 13644" transform="translate(-1327 -1093)">
    <circle id="Ellipse_784" data-name="Ellipse 784" cx="22" cy="22" r="22" transform="translate(1327 1093)" fill="#ffb71b"/>
    <path id="Path_132" data-name="Path 132" d="M935.062,330.462a14.135,14.135,0,0,0,.169-2.085,13.7,13.7,0,1,0-27.4,0,14.053,14.053,0,0,0,.17,2.085,13.887,13.887,0,0,0,1.31,27.694c.122,0,.241-.016.368-.016l-.009.016h23.016V358.1c.362.031.712.057,1.079.057a13.887,13.887,0,0,0,1.3-27.694" transform="translate(441.904 789.075)" fill="none" stroke="#4d4d4d" stroke-width="2"/>
  </g>
</svg>
