<svg xmlns="http://www.w3.org/2000/svg" width="24.495" height="24.077" viewBox="0 0 24.495 24.077">
  <path id="Path_123" data-name="Path 123" d="M230.637,32.065l-.6-1.859h0a1.279,1.279,0,0,0-1.516-.846l-6.778.662-1.033-6.766a1.281,1.281,0,0,0-1.278-1.223h-1.954a1.283,1.283,0,0,0-1.278,1.223l-1.033,6.766-6.778-.662a1.279,1.279,0,0,0-1.516.846l-.6,1.864a1.284,1.284,0,0,0,.8,1.608L213,36.416l-3.78,6.565a1.287,1.287,0,0,0-.209.7v.043a1.28,1.28,0,0,0,.083.428,1.258,1.258,0,0,0,.441.573l.953.695.616.448a1.276,1.276,0,0,0,1.759-.242l5.588-5,5.585,5a1.275,1.275,0,0,0,1.758.242l.617-.448.953-.695a1.267,1.267,0,0,0,.441-.573,1.281,1.281,0,0,0,.085-.428v-.043a1.275,1.275,0,0,0-.209-.7l-3.783-6.57,5.937-2.738a1.288,1.288,0,0,0,.814-.869,1.274,1.274,0,0,0-.016-.739" transform="translate(-206.202 -22.034)" fill="#006bdc"/>
</svg>
