<svg xmlns="http://www.w3.org/2000/svg" width="41.074" height="65.275" viewBox="0 0 41.074 65.275">
  <g id="scroll-icon" transform="translate(-1690.26 -7652.568)">
    <path id="Path_12609" data-name="Path 12609" d="M4202.718,4042.867a410.166,410.166,0,0,0,23.579-34.125" transform="matrix(0.848, -0.53, 0.53, 0.848, -3996.723, 6514.998)" fill="none" stroke="#ffb71b" stroke-width="3" stroke-dasharray="17 5"/>
    <path id="Path_120" data-name="Path 120" d="M16.161.88.7,14.165a2.08,2.08,0,0,0-.287.3A1.871,1.871,0,0,0,.2,14.8a1.713,1.713,0,0,0-.129.362,1.624,1.624,0,0,0-.042.379L.09,27.511a.815.815,0,0,0,.051.282.892.892,0,0,0,.144.251,1.029,1.029,0,0,0,.225.2,1.188,1.188,0,0,0,.293.143,1.315,1.315,0,0,0,.331.063,1.357,1.357,0,0,0,.333-.021,1.3,1.3,0,0,0,.313-.1,1.16,1.16,0,0,0,.271-.176l15.97-13.87,16.559,13.4a1.175,1.175,0,0,0,.277.169,1.308,1.308,0,0,0,.316.092,1.359,1.359,0,0,0,.333.011,1.307,1.307,0,0,0,.329-.072,1.174,1.174,0,0,0,.287-.151,1.015,1.015,0,0,0,.217-.211.881.881,0,0,0,.135-.255.811.811,0,0,0,.04-.284l-.078-2.476-.335-9.5a1.651,1.651,0,0,0-.059-.378,1.753,1.753,0,0,0-.144-.359,1.92,1.92,0,0,0-.224-.33,2.134,2.134,0,0,0-.3-.291L19.347.834A2.225,2.225,0,0,0,19,.607a2.451,2.451,0,0,0-.391-.165,2.624,2.624,0,0,0-.423-.1A2.72,2.72,0,0,0,17.3.355a2.6,2.6,0,0,0-.419.112A2.423,2.423,0,0,0,16.5.644a2.194,2.194,0,0,0-.338.238" transform="translate(1694.288 7652.568)" fill="#ffb71b"/>
  </g>
</svg>
