<svg xmlns="http://www.w3.org/2000/svg" width="242.152" height="271.66" viewBox="0 0 242.152 271.66">
  <g id="scroll-top-icon" transform="translate(-1537.803 -7652.568)">
    <path id="Path_12609" data-name="Path 12609" d="M4202.718,4042.867a410.166,410.166,0,0,0,23.579-34.125" transform="matrix(0.848, -0.53, 0.53, 0.848, -3996.723, 6514.998)" fill="none" stroke="#ffb71b" stroke-width="3" stroke-dasharray="17 5"/>
    <g id="Group_13709" data-name="Group 13709" transform="matrix(0.848, -0.53, 0.53, 0.848, -2633.45, 3936.048)">
      <path id="Path_12580" data-name="Path 12580" d="M4033.573,4171.131s-21.449-46.964,40.635-84.189c112.237-51.587,2.294-130.77-16.058-67.693s88.009,92.549,143.874,21.24" transform="translate(-2524.774 1470.643)" fill="none" stroke="#fff" stroke-width="3" stroke-dasharray="17 5"/>
      <path id="Path_120" data-name="Path 120" d="M28.384,9.311,8.233,12.385a2.08,2.08,0,0,0-.4.1,1.871,1.871,0,0,0-.356.173,1.713,1.713,0,0,0-.3.239,1.624,1.624,0,0,0-.237.3L.643,23.379a.815.815,0,0,0-.106.266.892.892,0,0,0-.011.289,1.029,1.029,0,0,0,.082.293,1.188,1.188,0,0,0,.173.276,1.314,1.314,0,0,0,.247.229,1.357,1.357,0,0,0,.293.159,1.3,1.3,0,0,0,.318.081,1.16,1.16,0,0,0,.323-.006l20.894-3.3L29.8,41.8a1.175,1.175,0,0,0,.146.29,1.308,1.308,0,0,0,.22.245,1.359,1.359,0,0,0,.277.186,1.307,1.307,0,0,0,.317.113,1.174,1.174,0,0,0,.324.024,1.014,1.014,0,0,0,.3-.064.881.881,0,0,0,.249-.145.811.811,0,0,0,.185-.219l1.246-2.141,4.751-8.234a1.651,1.651,0,0,0,.151-.352,1.752,1.752,0,0,0,.068-.381,1.92,1.92,0,0,0-.015-.4,2.134,2.134,0,0,0-.1-.4l-6.8-19.362a2.226,2.226,0,0,0-.174-.377,2.451,2.451,0,0,0-.244-.347,2.624,2.624,0,0,0-.306-.308,2.72,2.72,0,0,0-.756-.457,2.6,2.6,0,0,0-.414-.127,2.423,2.423,0,0,0-.42-.054,2.194,2.194,0,0,0-.413.022" transform="translate(1685.53 5445.14)" fill="#ffb71b"/>
    </g>
  </g>
</svg>
