<svg xmlns="http://www.w3.org/2000/svg" width="53.706" height="53.495" viewBox="0 0 53.706 53.495">
  <g id="Group_13645" data-name="Group 13645" transform="translate(-1184.493 -1098.75)">
    <circle id="Ellipse_783" data-name="Ellipse 783" cx="9.5" cy="9.5" r="9.5" transform="translate(1202 1116)" fill="#e83941"/>
    <path id="Path_125" data-name="Path 125" d="M607.368,347.106l-2.517-3.417a20.413,20.413,0,0,0,2.471-3.347l4.065,1.3a1.437,1.437,0,0,0,1.795-.9l1.859-5.646a1.4,1.4,0,0,0-.912-1.768l-4.063-1.3c.067-.676.1-1.368.1-2.071a20.638,20.638,0,0,0-.1-2.07l4.063-1.3a1.4,1.4,0,0,0,.912-1.762l-1.859-5.646a1.438,1.438,0,0,0-1.795-.891l-4.065,1.3a20.43,20.43,0,0,0-2.471-3.347l2.517-3.393a1.393,1.393,0,0,0-.318-1.96l-4.867-3.49a1.447,1.447,0,0,0-1.983.315l-2.508,3.4a20.792,20.792,0,0,0-4-1.278v-4.208a1.416,1.416,0,0,0-1.419-1.4h-6.019a1.413,1.413,0,0,0-1.419,1.4v4.207a20.793,20.793,0,0,0-4,1.278l-2.5-3.4a1.447,1.447,0,0,0-1.983-.315l-4.87,3.49a1.391,1.391,0,0,0-.318,1.96l2.517,3.405A20.467,20.467,0,0,0,571.2,319.6l-4.06-1.3a1.438,1.438,0,0,0-1.793.891l-1.859,5.646a1.4,1.4,0,0,0,.912,1.762l4.063,1.3c-.067.682-.1,1.374-.1,2.07s.036,1.394.1,2.071l-4.063,1.3a1.4,1.4,0,0,0-.912,1.768l1.859,5.646a1.437,1.437,0,0,0,1.793.9l4.06-1.3a20.447,20.447,0,0,0,2.475,3.347l-2.517,3.417a1.385,1.385,0,0,0,.318,1.954l4.87,3.482a1.432,1.432,0,0,0,1.983-.312l2.5-3.4a21.3,21.3,0,0,0,4,1.278v4.212a1.413,1.413,0,0,0,1.419,1.4h6.018a1.416,1.416,0,0,0,1.419-1.4v-4.212a21.3,21.3,0,0,0,4-1.278l2.508,3.4a1.431,1.431,0,0,0,1.983.312l4.867-3.482a1.389,1.389,0,0,0,.318-1.954M589.262,339.5a9.508,9.508,0,1,1,9.657-9.508,9.508,9.508,0,0,1-9.657,9.508" transform="translate(622.083 795.513)" fill="none" stroke="#4d4d4d" stroke-width="2"/>
  </g>
</svg>
