<svg xmlns="http://www.w3.org/2000/svg" width="35" height="34.402" viewBox="0 0 35 34.402">
  <path id="Path_123" data-name="Path 123" d="M241.115,36.367l-.863-2.657h0a1.828,1.828,0,0,0-2.166-1.208l-9.684.946-1.476-9.667a1.83,1.83,0,0,0-1.826-1.747h-2.791a1.833,1.833,0,0,0-1.826,1.747l-1.476,9.667-9.684-.946a1.828,1.828,0,0,0-2.166,1.208l-.863,2.664a1.835,1.835,0,0,0,1.139,2.3l8.485,3.912-5.4,9.38a1.839,1.839,0,0,0-.3.994v.062a1.829,1.829,0,0,0,.119.611,1.8,1.8,0,0,0,.63.818l1.362.993.88.64a1.823,1.823,0,0,0,2.513-.345l7.984-7.148,7.98,7.148a1.821,1.821,0,0,0,2.512.345l.882-.64,1.362-.993a1.81,1.81,0,0,0,.63-.818,1.829,1.829,0,0,0,.121-.611v-.062a1.822,1.822,0,0,0-.3-.994l-5.4-9.387,8.483-3.912a1.84,1.84,0,0,0,1.163-1.241,1.821,1.821,0,0,0-.022-1.056" transform="translate(-206.202 -22.034)" fill="#ffb71b"/>
</svg>
