<svg xmlns="http://www.w3.org/2000/svg" width="33.835" height="33.257" viewBox="0 0 33.835 33.257">
  <path id="yellow-small-star" d="M239.953,35.89l-.834-2.568h0a1.767,1.767,0,0,0-2.094-1.168l-9.362.914-1.427-9.345a1.769,1.769,0,0,0-1.766-1.689h-2.7a1.772,1.772,0,0,0-1.766,1.689l-1.427,9.345-9.362-.914a1.767,1.767,0,0,0-2.094,1.168l-.834,2.575a1.774,1.774,0,0,0,1.1,2.221l8.2,3.781-5.222,9.068a1.778,1.778,0,0,0-.289.961v.06a1.768,1.768,0,0,0,.115.591,1.738,1.738,0,0,0,.609.791l1.317.96.851.619a1.762,1.762,0,0,0,2.43-.334l7.718-6.91,7.715,6.91a1.761,1.761,0,0,0,2.428.334l.853-.619,1.317-.96a1.75,1.75,0,0,0,.609-.791,1.77,1.77,0,0,0,.117-.591v-.06a1.761,1.761,0,0,0-.289-.961l-5.225-9.075,8.2-3.781a1.779,1.779,0,0,0,1.125-1.2,1.76,1.76,0,0,0-.022-1.021" transform="translate(-206.202 -22.034)" fill="#ffb71b"/>
</svg>
